#Comment line ignore any data following # character 
#Hierarchical Translation and Rotation (.htr) file 
[Header]	
#Header keywords are followed by a single value 
FileType HTR		#Single word string
DataType HTRS		#Translation followed by rotation and scale data
FileVersion 1		#integer
NumSegments 84		#integer
NumFrames 2		#integer
DataFrameRate 30		#integer, data frame rate in this file
EulerRotationOrder ZYX
CalibrationUnits mm
RotationUnits Degrees
GlobalAxisofGravity Y
BoneLengthAxis Y
ScaleFactor 1.00
[SegmentNames&Hierarchy]
#CHILD	PARENT
MASTER GLOBAL
root MASTER
chest root
L_mid_tent01 root
R_mid_tent01 root
spine01 root
Bip01_Neck chest
L_humerus chest
R_humerus chest
weapon_bone chest
Bip01_Head Bip01_Neck
eye_left_bone Bip01_Head
eye_right_bone Bip01_Head
L_forearm L_humerus
L_front_hand L_forearm
L_weapon_bone L_forearm
L_front_hand01_01 L_front_hand
L_front_hand02_01 L_front_hand
L_front_hand03_01 L_front_hand
L_front_hand01_02 L_front_hand01_01
L_front_hand02_02 L_front_hand02_01
L_front_hand03_02 L_front_hand03_01
R_forearm R_humerus
R_front_hand R_forearm
R_weapon_bone R_forearm
R_front_hand01_01 R_front_hand
R_front_hand02_01 R_front_hand
R_front_hand03_01 R_front_hand
R_front_hand01_02 R_front_hand01_01
R_front_hand02_02 R_front_hand02_01
R_front_hand03_02 R_front_hand03_01
null_rope01_connect L_mid_tent01
Rope1_Seg01 null_rope01_connect
Rope1_Seg02 Rope1_Seg01
Rope1_Seg03 Rope1_Seg02
Rope1_Seg04 Rope1_Seg03
Rope1_Seg05 Rope1_Seg04
Rope1_Seg06 Rope1_Seg05
Rope1_Seg07 Rope1_Seg06
Rope1_Seg09 Rope1_Seg07
L_mid_hand01 Rope1_Seg09
L_mid_hand02 Rope1_Seg09
L_mid_hand03 Rope1_Seg09
null_rope02_connect R_mid_tent01
Rope2_Seg01 null_rope02_connect
Rope2_Seg02 Rope2_Seg01
Rope2_Seg03 Rope2_Seg02
Rope2_Seg04 Rope2_Seg03
Rope2_Seg05 Rope2_Seg04
Rope2_Seg06 Rope2_Seg05
Rope2_Seg07 Rope2_Seg06
Rope2_Seg09 Rope2_Seg07
R_mid_hand01 Rope2_Seg09
R_mid_hand02 Rope2_Seg09
R_mid_hand03 Rope2_Seg09
spine02 spine01
spine03 spine02
pelvis spine03
null_rope03_connect pelvis
null_rope04_connect pelvis
Rope3_Seg01 null_rope03_connect
Rope3_Seg02 Rope3_Seg01
Rope3_Seg03 Rope3_Seg02
Rope3_Seg04 Rope3_Seg03
Rope3_Seg05 Rope3_Seg04
Rope3_Seg06 Rope3_Seg05
Rope3_Seg07 Rope3_Seg06
Rope3_Seg08 Rope3_Seg07
Rope3_Seg09 Rope3_Seg08
R_rear_hand01 Rope3_Seg09
R_rear_hand02 Rope3_Seg09
R_rear_hand03 Rope3_Seg09
Rope4_Seg01 null_rope04_connect
Rope4_Seg02 Rope4_Seg01
Rope4_Seg03 Rope4_Seg02
Rope4_Seg04 Rope4_Seg03
Rope4_Seg05 Rope4_Seg04
Rope4_Seg06 Rope4_Seg05
Rope4_Seg07 Rope4_Seg06
Rope4_Seg08 Rope4_Seg07
Rope4_Seg09 Rope4_Seg08
L_rear_hand01 Rope4_Seg09
L_rear_hand02 Rope4_Seg09
L_rear_hand03 Rope4_Seg09
[BasePosition]
#SegmentName Tx, Ty, Tz, Rx, Ry, Rz, BoneLength
MASTER 0.000000 0.000000 0.000000 -90.000000 0.000000 0.000000 10.000000 
root 0.000000 0.000000 0.000000 0.000000 0.000000 0.000000 10.000000 
chest 0.000000 0.000000 0.000000 0.000000 0.000000 0.000000 10.000000 
L_mid_tent01 0.000000 0.000000 0.000000 0.000000 0.000000 0.000000 10.000000 
R_mid_tent01 0.000000 0.000000 0.000000 0.000000 0.000000 0.000000 10.000000 
spine01 0.000000 0.000000 0.000000 0.000000 0.000000 0.000000 10.000000 
Bip01_Neck 0.000000 0.000000 0.000000 0.000000 0.000000 0.000000 10.000000 
L_humerus 0.000000 0.000000 0.000000 0.000000 0.000000 0.000000 10.000000 
R_humerus 0.000000 0.000000 0.000000 0.000000 0.000000 0.000000 10.000000 
weapon_bone 0.000000 0.000000 0.000000 0.000000 0.000000 0.000000 10.000000 
Bip01_Head 0.000000 0.000000 0.000000 0.000000 0.000000 0.000000 10.000000 
eye_left_bone 0.000000 0.000000 0.000000 0.000000 0.000000 0.000000 10.000000 
eye_right_bone 0.000000 0.000000 0.000000 0.000000 0.000000 0.000000 10.000000 
L_forearm 0.000000 0.000000 0.000000 0.000000 0.000000 0.000000 10.000000 
L_front_hand 0.000000 0.000000 0.000000 0.000000 0.000000 0.000000 10.000000 
L_weapon_bone 0.000000 0.000000 0.000000 0.000000 0.000000 0.000000 10.000000 
L_front_hand01_01 0.000000 0.000000 0.000000 0.000000 0.000000 0.000000 10.000000 
L_front_hand02_01 0.000000 0.000000 0.000000 0.000000 0.000000 0.000000 10.000000 
L_front_hand03_01 0.000000 0.000000 0.000000 0.000000 0.000000 0.000000 10.000000 
L_front_hand01_02 0.000000 0.000000 0.000000 0.000000 0.000000 0.000000 10.000000 
L_front_hand02_02 0.000000 0.000000 0.000000 0.000000 0.000000 0.000000 10.000000 
L_front_hand03_02 0.000000 0.000000 0.000000 0.000000 0.000000 0.000000 10.000000 
R_forearm 0.000000 0.000000 0.000000 0.000000 0.000000 0.000000 10.000000 
R_front_hand 0.000000 0.000000 0.000000 0.000000 0.000000 0.000000 10.000000 
R_weapon_bone 0.000000 0.000000 0.000000 0.000000 0.000000 0.000000 10.000000 
R_front_hand01_01 0.000000 0.000000 0.000000 0.000000 0.000000 0.000000 10.000000 
R_front_hand02_01 0.000000 0.000000 0.000000 0.000000 0.000000 0.000000 10.000000 
R_front_hand03_01 0.000000 0.000000 0.000000 0.000000 0.000000 0.000000 10.000000 
R_front_hand01_02 0.000000 0.000000 0.000000 0.000000 0.000000 0.000000 10.000000 
R_front_hand02_02 0.000000 0.000000 0.000000 0.000000 0.000000 0.000000 10.000000 
R_front_hand03_02 0.000000 0.000000 0.000000 0.000000 0.000000 0.000000 10.000000 
null_rope01_connect 0.000000 0.000000 0.000000 0.000000 0.000000 0.000000 10.000000 
Rope1_Seg01 0.000000 0.000000 0.000000 0.000000 0.000000 0.000000 10.000000 
Rope1_Seg02 0.000000 0.000000 0.000000 0.000000 0.000000 0.000000 10.000000 
Rope1_Seg03 0.000000 0.000000 0.000000 0.000000 0.000000 0.000000 10.000000 
Rope1_Seg04 0.000000 0.000000 0.000000 0.000000 0.000000 0.000000 10.000000 
Rope1_Seg05 0.000000 0.000000 0.000000 0.000000 0.000000 0.000000 10.000000 
Rope1_Seg06 0.000000 0.000000 0.000000 0.000000 0.000000 0.000000 10.000000 
Rope1_Seg07 0.000000 0.000000 0.000000 0.000000 0.000000 0.000000 10.000000 
Rope1_Seg09 0.000000 0.000000 0.000000 0.000000 0.000000 0.000000 10.000000 
L_mid_hand01 0.000000 0.000000 0.000000 0.000000 0.000000 0.000000 10.000000 
L_mid_hand02 0.000000 0.000000 0.000000 0.000000 0.000000 0.000000 10.000000 
L_mid_hand03 0.000000 0.000000 0.000000 0.000000 0.000000 0.000000 10.000000 
null_rope02_connect 0.000000 0.000000 0.000000 0.000000 0.000000 0.000000 10.000000 
Rope2_Seg01 0.000000 0.000000 0.000000 0.000000 0.000000 0.000000 10.000000 
Rope2_Seg02 0.000000 0.000000 0.000000 0.000000 0.000000 0.000000 10.000000 
Rope2_Seg03 0.000000 0.000000 0.000000 0.000000 0.000000 0.000000 10.000000 
Rope2_Seg04 0.000000 0.000000 0.000000 0.000000 0.000000 0.000000 10.000000 
Rope2_Seg05 0.000000 0.000000 0.000000 0.000000 0.000000 0.000000 10.000000 
Rope2_Seg06 0.000000 0.000000 0.000000 0.000000 0.000000 0.000000 10.000000 
Rope2_Seg07 0.000000 0.000000 0.000000 0.000000 0.000000 0.000000 10.000000 
Rope2_Seg09 0.000000 0.000000 0.000000 0.000000 0.000000 0.000000 10.000000 
R_mid_hand01 0.000000 0.000000 0.000000 0.000000 0.000000 0.000000 10.000000 
R_mid_hand02 0.000000 0.000000 0.000000 0.000000 0.000000 0.000000 10.000000 
R_mid_hand03 0.000000 0.000000 0.000000 0.000000 0.000000 0.000000 10.000000 
spine02 0.000000 0.000000 0.000000 0.000000 0.000000 0.000000 10.000000 
spine03 0.000000 0.000000 0.000000 0.000000 0.000000 0.000000 10.000000 
pelvis 0.000000 0.000000 0.000000 0.000000 0.000000 0.000000 10.000000 
null_rope03_connect 0.000000 0.000000 0.000000 0.000000 0.000000 0.000000 10.000000 
null_rope04_connect 0.000000 0.000000 0.000000 0.000000 0.000000 0.000000 10.000000 
Rope3_Seg01 0.000000 0.000000 0.000000 0.000000 0.000000 0.000000 10.000000 
Rope3_Seg02 0.000000 0.000000 0.000000 0.000000 0.000000 0.000000 10.000000 
Rope3_Seg03 0.000000 0.000000 0.000000 0.000000 0.000000 0.000000 10.000000 
Rope3_Seg04 0.000000 0.000000 0.000000 0.000000 0.000000 0.000000 10.000000 
Rope3_Seg05 0.000000 0.000000 0.000000 0.000000 0.000000 0.000000 10.000000 
Rope3_Seg06 0.000000 0.000000 0.000000 0.000000 0.000000 0.000000 10.000000 
Rope3_Seg07 0.000000 0.000000 0.000000 0.000000 0.000000 0.000000 10.000000 
Rope3_Seg08 0.000000 0.000000 0.000000 0.000000 0.000000 0.000000 10.000000 
Rope3_Seg09 0.000000 0.000000 0.000000 0.000000 0.000000 0.000000 10.000000 
R_rear_hand01 0.000000 0.000000 0.000000 0.000000 0.000000 0.000000 10.000000 
R_rear_hand02 0.000000 0.000000 0.000000 0.000000 0.000000 0.000000 10.000000 
R_rear_hand03 0.000000 0.000000 0.000000 0.000000 0.000000 0.000000 10.000000 
Rope4_Seg01 0.000000 0.000000 0.000000 0.000000 0.000000 0.000000 10.000000 
Rope4_Seg02 0.000000 0.000000 0.000000 0.000000 0.000000 0.000000 10.000000 
Rope4_Seg03 0.000000 0.000000 0.000000 0.000000 0.000000 0.000000 10.000000 
Rope4_Seg04 0.000000 0.000000 0.000000 0.000000 0.000000 0.000000 10.000000 
Rope4_Seg05 0.000000 0.000000 0.000000 0.000000 0.000000 0.000000 10.000000 
Rope4_Seg06 0.000000 0.000000 0.000000 0.000000 0.000000 0.000000 10.000000 
Rope4_Seg07 0.000000 0.000000 0.000000 0.000000 0.000000 0.000000 10.000000 
Rope4_Seg08 0.000000 0.000000 0.000000 0.000000 0.000000 0.000000 10.000000 
Rope4_Seg09 0.000000 0.000000 0.000000 0.000000 0.000000 0.000000 10.000000 
L_rear_hand01 0.000000 0.000000 0.000000 0.000000 0.000000 0.000000 10.000000 
L_rear_hand02 0.000000 0.000000 0.000000 0.000000 0.000000 0.000000 10.000000 
L_rear_hand03 0.000000 0.000000 0.000000 0.000000 0.000000 0.000000 10.000000 
#Beginning of Data. Separated by tabs
#Fr	Tx	Ty	Tz	Rx	Ry	Rz	SF
[MASTER]
143 -97.512817 -9.969788 -1233.149414 0.001346 0.001923 -20.001186 1237.039063
144 -97.512817 -9.969788 -1233.149414 0.001346 0.001923 -20.001186 1237.039063
[root]
143 112.648148 484.688171 2155.489014 -65.109596 -51.754631 -117.633369 2212.180908
144 112.648148 484.688171 2155.489014 -65.109596 -51.754631 -117.633369 2212.180908
[chest]
143 -84.512650 -34.090519 0.000000 -7.354864 0.147573 160.527786 91.129311
144 -84.512650 -34.090519 0.000000 -7.354864 0.147573 160.527786 91.129311
[L_mid_tent01]
143 27.298677 22.179470 -249.918793 48.629616 61.913177 141.095352 252.381744
144 27.298676 22.179472 -249.918793 48.089359 61.848370 140.459625 252.381744
[R_mid_tent01]
143 23.228794 24.509907 226.238495 29.492598 -62.071899 -144.891953 228.744751
144 23.228794 24.509907 226.238495 29.492598 -62.071899 -144.891953 228.744751
[spine01]
143 -0.361383 -0.195265 0.000000 -0.000001 -0.000007 22.052340 0.410763
144 -0.361383 -0.195265 0.000000 -0.000001 -0.000007 22.052340 0.410763
[Bip01_Neck]
143 165.484543 71.581718 0.000119 176.643677 -1.657967 43.431911 180.302734
144 165.484543 71.581718 0.000119 176.643677 -1.657967 43.431911 180.302734
[L_humerus]
143 -13.983130 -135.272980 -120.471481 156.317398 70.210068 -112.010254 181.680161
144 -13.983130 -135.272980 -120.471481 156.317062 70.210350 -112.010597 181.680161
[R_humerus]
143 -13.983309 -135.273102 125.287651 -172.382263 -66.903831 -92.553993 184.909012
144 -13.983309 -135.273102 125.287651 -172.382233 -66.904175 -92.554039 184.909012
[weapon_bone]
143 235.964890 -300.705902 0.000000 0.000000 -89.951546 -128.212341 382.234833
144 235.964890 -300.705902 0.000000 0.000000 -89.951546 -128.212341 382.234833
[Bip01_Head]
143 174.963211 149.913635 29.581425 2.404900 1.829640 -43.311596 232.295670
144 174.963211 149.913635 29.581423 2.404900 1.829640 -43.311592 232.295670
[eye_left_bone]
143 -24.626970 125.451866 -64.772606 0.000000 -90.000000 -99.840431 143.318359
144 -24.626970 125.451866 -64.772606 0.000000 -90.000000 -99.840431 143.318359
[eye_right_bone]
143 -24.626970 125.451866 64.327362 0.000000 -89.965736 80.156380 143.117676
144 -24.626970 125.451866 64.327362 0.000000 -89.965736 80.156380 143.117676
[L_forearm]
143 322.776093 0.000000 -0.000119 0.000849 0.002188 -47.610535 322.776093
144 322.776093 0.000000 -0.000119 0.000638 0.002259 -58.477928 322.776093
[L_front_hand]
143 241.149185 -0.042021 -3.300071 166.403824 -1.769043 -27.431768 241.171753
144 241.149185 -0.042021 -3.300071 116.648865 -1.159855 -27.831167 241.171753
[L_weapon_bone]
143 156.183838 0.000000 0.000000 0.000014 0.000007 0.000001 156.183838
144 156.183838 0.000000 0.000000 0.000014 0.000007 0.000001 156.183838
[L_front_hand01_01]
143 86.095154 20.947098 -0.655860 -0.366594 -0.477154 75.385574 88.609184
144 86.095154 20.947098 -0.655860 -0.366594 -0.477154 75.385574 88.609184
[L_front_hand02_01]
143 86.935165 -11.437475 24.513514 154.399796 -59.883835 -61.369587 91.046425
144 86.935165 -11.437475 24.513514 154.399796 -59.883835 -61.369587 91.046425
[L_front_hand03_01]
143 86.637497 -14.123976 -20.424902 -153.913849 58.118122 -62.702866 90.126129
144 86.637497 -14.123976 -20.424902 -153.913849 58.118122 -62.702866 90.126129
[L_front_hand01_02]
143 71.020905 -0.000179 0.000030 0.000334 -0.002323 -106.379684 71.020905
144 71.020905 -0.000179 0.000030 0.000334 -0.002323 -106.379684 71.020905
[L_front_hand02_02]
143 71.020927 -0.000119 0.000060 0.000334 -0.002323 -106.379684 71.020927
144 71.020927 -0.000119 0.000060 0.000334 -0.002323 -106.379684 71.020927
[L_front_hand03_02]
143 71.020905 -0.000060 0.000060 0.000334 -0.002323 -106.379684 71.020905
144 71.020905 -0.000060 0.000060 0.000334 -0.002323 -106.379684 71.020905
[R_forearm]
143 322.776428 -0.000060 0.000030 0.152175 -0.147824 -46.893162 322.776428
144 322.776428 -0.000060 0.000030 0.179434 -0.112334 -59.169212 322.776428
[R_front_hand]
143 238.847015 -0.006795 2.210259 -148.450104 -10.645367 -26.313662 238.857239
144 238.847015 -0.006795 2.210259 -100.598419 -10.645937 -26.314688 238.857239
[R_weapon_bone]
143 155.664093 0.002503 -0.000030 0.003487 0.001180 -90.988930 155.664078
144 155.664093 0.002503 -0.000030 0.003487 0.001180 -90.988930 155.664078
[R_front_hand01_01]
143 87.624611 14.231146 22.918642 -154.633499 -59.950619 61.746044 91.683487
144 87.624611 14.231146 22.918642 -154.633499 -59.950619 61.746044 91.683487
[R_front_hand02_01]
143 89.356956 14.367283 -19.491137 154.602661 58.302849 63.744389 92.579636
144 89.356956 14.367283 -19.491137 154.602661 58.302849 63.744389 92.579636
[R_front_hand03_01]
143 87.286232 -22.307278 -0.143439 0.162155 -0.423168 -75.767921 90.091743
144 87.286232 -22.307278 -0.143439 0.162155 -0.423168 -75.767921 90.091743
[R_front_hand01_02]
143 71.020905 0.000060 0.000119 0.002323 -0.000334 106.381714 71.020905
144 71.020905 0.000060 0.000119 0.002323 -0.000334 106.381714 71.020905
[R_front_hand02_02]
143 71.020844 -0.000030 -0.000119 0.002323 -0.000334 106.381714 71.020836
144 71.020844 -0.000030 -0.000119 0.002323 -0.000334 106.381714 71.020836
[R_front_hand03_02]
143 71.020905 0.000000 0.000030 0.002323 -0.000334 106.381714 71.020905
144 71.020905 0.000000 0.000030 0.002323 -0.000334 106.381714 71.020905
[null_rope01_connect]
143 328.732483 0.000000 -0.000238 -116.034889 -1.571157 131.240997 328.732483
144 328.732483 0.000000 -0.000238 -115.816360 -1.736731 131.384506 328.732483
[Rope1_Seg01]
143 -0.000047 0.000000 0.000000 -52.887680 39.758373 101.291321 0.000047
144 -0.000047 0.000000 0.000000 -52.814655 39.571899 101.098282 0.000047
[Rope1_Seg02]
143 139.999863 -0.000179 0.000000 -9.618143 3.990374 8.524302 139.999863
144 139.999863 -0.000179 0.000000 -9.656177 3.993128 8.464882 139.999863
[Rope1_Seg03]
143 139.999924 0.000060 -0.000060 -11.371340 4.335320 16.167738 139.999924
144 139.999924 0.000060 -0.000060 -11.449744 4.358848 16.115891 139.999924
[Rope1_Seg04]
143 139.999924 -0.000060 -0.000119 -8.517512 -0.655561 29.413425 139.999924
144 139.999924 -0.000060 -0.000119 -8.632189 -0.633403 29.514654 139.999924
[Rope1_Seg05]
143 139.999832 0.000119 -0.000060 -1.148503 0.545628 23.218050 139.999832
144 139.999832 0.000119 -0.000060 -1.193910 0.470715 23.360018 139.999832
[Rope1_Seg06]
143 139.999954 0.000119 -0.000060 1.828618 5.415777 11.207643 139.999954
144 139.999954 0.000119 -0.000060 1.829757 5.433021 11.213029 139.999954
[Rope1_Seg07]
143 139.999985 0.000060 0.000000 1.473110 2.280087 7.739392 139.999985
144 139.999985 0.000060 0.000000 1.475030 2.293063 7.749531 139.999985
[Rope1_Seg09]
143 121.602913 0.000119 -0.000089 -89.793175 -1.359789 0.847147 121.602913
144 121.602913 0.000119 -0.000089 -89.793175 -1.359789 0.847147 121.602913
[L_mid_hand01]
143 103.859421 1.038730 8.195221 130.544373 -67.584534 -38.866943 104.187431
144 103.859421 1.038730 8.195221 130.544373 -67.584534 -38.866943 104.187431
[L_mid_hand02]
143 105.572853 -4.139662 -10.864139 -168.923172 43.409309 -73.498886 106.211075
144 105.572853 -4.139662 -10.864139 -168.923172 43.409309 -73.498886 106.211075
[L_mid_hand03]
143 104.641464 17.579376 -3.913581 -6.012627 17.808174 74.893669 106.179977
144 104.641464 17.579376 -3.913581 -6.012627 17.808174 74.893669 106.179977
[null_rope02_connect]
143 328.732849 0.000179 -0.000119 -95.537643 0.841558 -4.719750 328.732849
144 328.732849 0.000179 -0.000119 -95.537643 0.841558 -4.719750 328.732849
[Rope2_Seg01]
143 0.000047 0.000000 0.000000 88.991333 13.678446 22.994732 0.000047
144 0.000047 0.000000 0.000000 88.948357 13.687651 22.886879 0.000047
[Rope2_Seg02]
143 139.999741 -0.000060 -0.000119 -4.366324 -6.806406 -15.526620 139.999756
144 139.999741 -0.000060 -0.000119 -4.404699 -6.790688 -15.596546 139.999756
[Rope2_Seg03]
143 140.000107 0.000030 0.000000 -5.117174 -8.614529 -23.757643 140.000107
144 140.000107 0.000030 0.000000 -5.125595 -8.533985 -23.747967 140.000107
[Rope2_Seg04]
143 139.999802 0.000000 -0.000060 -3.360908 -4.976360 -21.835636 139.999802
144 139.999802 0.000000 -0.000060 -3.335887 -4.865574 -21.700958 139.999802
[Rope2_Seg05]
143 139.999985 -0.000060 0.000119 -0.717534 3.358155 -6.958386 139.999985
144 139.999985 -0.000060 0.000119 -0.713976 3.330783 -6.969076 139.999985
[Rope2_Seg06]
143 139.999893 -0.000030 -0.000119 -0.173305 3.357197 -4.079589 139.999893
144 139.999893 -0.000030 -0.000119 -0.172158 3.306802 -4.133216 139.999893
[Rope2_Seg07]
143 139.999893 0.000060 -0.000060 0.086810 1.616956 -3.986650 139.999893
144 139.999893 0.000060 -0.000060 0.089312 1.598317 -4.004313 139.999893
[Rope2_Seg09]
143 121.338966 0.000089 -0.000060 33.793236 -1.359788 -0.847141 121.338966
144 121.338966 0.000089 -0.000060 33.793236 -1.359788 -0.847141 121.338966
[R_mid_hand01]
143 104.680779 11.144459 -10.335981 -16.212063 45.237247 70.462852 105.778534
144 104.680779 11.144459 -10.335981 -16.212063 45.237247 70.462852 105.778534
[R_mid_hand02]
143 104.070427 2.443552 8.231699 49.067368 -67.749771 39.286453 104.424065
144 104.070427 2.443552 8.231699 49.067368 -67.749771 39.286453 104.424065
[R_mid_hand03]
143 106.028137 -11.221827 -5.996406 -177.101105 15.551026 -76.585571 106.788818
144 106.028137 -11.221827 -5.996406 -177.101105 15.551026 -76.585571 106.788818
[spine02]
143 129.756927 0.001550 0.000119 0.427080 -4.037651 -13.909022 129.756927
144 129.756927 0.001550 0.000119 0.424742 -4.037917 -13.877534 129.756927
[spine03]
143 78.613892 0.081692 -4.899011 1.938252 3.810296 17.096962 78.766426
144 78.613892 0.081694 -4.899010 1.936959 3.810953 17.077139 78.766426
[pelvis]
143 169.435242 0.051022 0.000000 -0.063296 -0.179439 15.340058 169.435257
144 169.435242 0.051022 0.000000 -0.063088 -0.179481 15.299236 169.435257
[null_rope03_connect]
143 -1.257226 -2.466202 137.391083 -57.596535 -59.213760 165.506531 137.418976
144 -1.257226 -2.466202 137.391083 -57.600132 -59.212784 165.537308 137.418976
[null_rope04_connect]
143 -1.259640 -2.480268 -137.844437 -57.596535 -59.213760 165.506531 137.872513
144 -1.259640 -2.480268 -137.844437 -57.600132 -59.212784 165.537308 137.872513
[Rope3_Seg01]
143 0.000000 0.000105 0.000000 27.437645 -62.253754 -79.949371 0.000105
144 0.000000 0.000106 0.000000 27.433981 -62.276230 -79.937988 0.000106
[Rope3_Seg02]
143 139.999924 -0.000119 0.000060 -11.240815 29.331684 -15.805048 139.999924
144 139.999924 -0.000119 0.000060 -11.244292 29.333780 -15.813488 139.999924
[Rope3_Seg03]
143 139.999924 -0.000119 0.000119 -1.557505 20.156410 -1.990103 139.999924
144 139.999924 -0.000119 0.000119 -1.560560 20.168989 -1.998660 139.999924
[Rope3_Seg04]
143 139.999924 0.000119 0.000000 -3.088438 23.193283 -16.611294 139.999924
144 139.999924 0.000119 0.000000 -3.087795 23.192028 -16.609123 139.999924
[Rope3_Seg05]
143 139.999924 -0.000238 0.000060 -9.840220 30.836502 -30.369881 139.999924
144 139.999924 -0.000238 0.000060 -9.840395 30.837120 -30.370682 139.999924
[Rope3_Seg06]
143 139.999893 -0.000119 -0.000060 -1.511030 11.052010 -8.379012 139.999893
144 139.999893 -0.000119 -0.000060 -1.511448 11.053657 -8.380466 139.999893
[Rope3_Seg07]
143 139.999771 0.000060 -0.000119 -0.246348 5.320260 -3.843890 139.999771
144 139.999771 0.000060 -0.000119 -0.246375 5.320640 -3.844198 139.999771
[Rope3_Seg08]
143 139.999985 -0.000060 0.000000 0.181746 2.753358 -1.976909 139.999985
144 139.999985 -0.000060 0.000000 0.181741 2.753517 -1.976989 139.999985
[Rope3_Seg09]
143 90.185997 -0.000179 -0.000060 89.793228 -1.359877 -0.847183 90.185997
144 90.185997 -0.000179 -0.000060 89.793228 -1.359877 -0.847183 90.185997
[R_rear_hand01]
143 103.366196 -6.073594 -10.757982 -177.714203 24.565960 -73.910950 104.101845
144 103.366196 -6.073594 -10.757982 -177.714203 24.565960 -73.910950 104.101845
[R_rear_hand02]
143 100.509819 12.039542 -7.992327 -12.874829 36.868488 72.167213 101.543350
144 100.509819 12.039542 -7.992327 -12.874829 36.868488 72.167213 101.543350
[R_rear_hand03]
143 101.539970 5.215704 5.435467 71.484581 -71.816628 21.513813 101.819031
144 101.539970 5.215704 5.435467 71.484581 -71.816628 21.513813 101.819031
[Rope4_Seg01]
143 -0.000210 0.000000 0.000000 38.202213 -0.102163 132.734268 0.000210
144 -0.000212 0.000000 0.000000 38.301361 -0.029904 132.700470 0.000212
[Rope4_Seg02]
143 139.999985 0.000060 0.000119 -30.932714 17.878611 20.346607 139.999985
144 139.999985 0.000060 0.000119 -31.230722 17.790344 20.459133 139.999985
[Rope4_Seg03]
143 139.999924 0.000000 -0.000238 -54.479919 -4.404380 18.166346 139.999924
144 139.999924 0.000000 -0.000238 -53.886768 -4.680585 18.141762 139.999924
[Rope4_Seg04]
143 139.999985 0.000000 0.000119 -38.493603 -4.436076 15.893967 139.999985
144 139.999985 0.000000 0.000119 -37.986565 -4.329881 15.833953 139.999985
[Rope4_Seg05]
143 139.999802 -0.000060 -0.000119 -43.385429 -14.315988 23.880239 139.999802
144 139.999802 -0.000060 -0.000119 -44.011784 -14.011981 24.321741 139.999802
[Rope4_Seg06]
143 139.999924 0.000000 0.000060 -8.211030 -13.488267 3.376044 139.999924
144 139.999924 0.000000 0.000060 -8.414363 -13.626776 3.526089 139.999924
[Rope4_Seg07]
143 139.999802 0.000000 0.000000 -2.408419 -7.501544 0.546257 139.999802
144 139.999802 0.000000 0.000000 -2.441731 -7.551612 0.576794 139.999802
[Rope4_Seg08]
143 139.999924 0.000000 0.000119 -2.527234 -4.186455 0.128703 139.999924
144 139.999924 0.000000 0.000119 -2.537630 -4.206805 0.141085 139.999924
[Rope4_Seg09]
143 90.185791 0.000060 0.000060 -135.617828 2.228885 0.850567 90.185791
144 90.185791 0.000060 0.000060 -135.617828 2.228885 0.850567 90.185791
[L_rear_hand01]
143 101.696655 -8.392275 -7.654577 -12.874829 -36.868488 107.832764 102.329041
144 101.696655 -8.392275 -7.654577 -12.874829 -36.868488 107.832764 102.329041
[L_rear_hand02]
143 102.726799 -1.568258 5.773216 71.484581 71.816628 158.486160 102.900848
144 102.726799 -1.568258 5.773216 71.484581 71.816628 158.486160 102.900848
[L_rear_hand03]
143 104.552910 9.721220 -10.420293 -177.714203 -24.565960 -106.089035 105.519653
144 104.552910 9.721220 -10.420293 -177.714203 -24.565960 -106.089035 105.519653
